<svg width="18" height="16" viewBox="0 0 18 16" fill="none" xmlns="http://www.w3.org/2000/svg">
<path fill-rule="evenodd" clip-rule="evenodd" d="M8.626 1.00008C12.3789 1.05417 15.4579 4.48248 17 7.43226C17 7.43226 16.4573 8.5606 15.9484 9.2829C15.7021 9.63233 15.443 9.97275 15.1707 10.302C14.9766 10.5364 14.7761 10.7646 14.5681 10.9864C12.7094 12.9698 10.04 14.4493 7.22122 13.8749C4.08975 13.2366 1.53539 10.5104 0 7.57831C0 7.57831 0.545159 6.44888 1.05695 5.72766C1.28623 5.4042 1.52687 5.08938 1.77886 4.78395C1.97194 4.54991 2.17212 4.32165 2.37903 4.09987C4.02125 2.34155 6.12842 0.987822 8.626 1.00008V1.00008ZM8.61287 2.44252C6.52238 2.43458 4.78398 3.62063 3.40866 5.09299C3.22162 5.29313 3.04132 5.4994 2.8667 5.71071C2.63706 5.9891 2.41772 6.27651 2.20867 6.57113C1.99962 6.86538 1.78525 7.23681 1.61525 7.55234C2.96891 9.86348 5.00084 11.951 7.50054 12.4606C9.82989 12.9355 12.0038 11.6308 13.5399 9.99186C13.7276 9.79172 13.909 9.58509 14.0843 9.37342C14.3328 9.07303 14.5691 8.76255 14.7938 8.44341C15.0018 8.14807 15.2158 7.77592 15.3855 7.46003C13.9807 5.07099 11.5772 2.4894 8.61287 2.44252Z" fill="#A4A4A4"/>
<path fill-rule="evenodd" clip-rule="evenodd" d="M8.49994 4.61426C10.0705 4.61426 11.3457 5.90992 11.3457 7.50526C11.3457 9.10095 10.0705 10.3963 8.49994 10.3963C6.92977 10.3963 5.65454 9.10095 5.65454 7.50526C5.65454 5.90992 6.92977 4.61426 8.49994 4.61426Z" fill="#A4A4A4"/>
<line x1="16.9559" y1="0.705731" x2="0.709072" y2="15.0419" stroke="#A4A4A4" stroke-linecap="round"/>
</svg>
